<?xml version="1.0" standalone="no"?>
<!DOCTYPE svg PUBLIC "-//W3C//DTD SVG 20010904//EN"
 "http://www.w3.org/TR/2001/REC-SVG-20010904/DTD/svg10.dtd">
<svg version="1.0" xmlns="http://www.w3.org/2000/svg"
 width="207.000000pt" height="300.000000pt" viewBox="0 0 207.000000 300.000000"
 preserveAspectRatio="xMidYMid meet">
<metadata>
Created by potrace 1.10, written by Peter Selinger 2001-2011
</metadata>
<g transform="translate(0.000000,300.000000) scale(0.100000,-0.100000)"
fill="#000000" stroke="none">
<path d="M660 2101 c-186 -9 -238 -22 -325 -89 -117 -89 -155 -285 -83 -429
29 -57 65 -88 152 -128 76 -35 76 -30 -2 -86 -72 -50 -94 -112 -102 -289 -4
-80 -12 -157 -18 -172 -24 -59 -95 -66 -140 -14 -17 19 -33 44 -37 56 -6 19
-12 21 -38 16 -56 -11 -62 -27 -34 -82 50 -98 113 -134 232 -134 89 0 134 16
164 59 33 45 40 81 51 231 13 180 25 225 75 276 54 57 91 65 282 62 l158 -3 0
-255 0 -255 -92 -3 c-88 -3 -93 -4 -99 -26 -3 -13 -4 -35 -2 -47 l3 -24 425 0
c445 0 475 2 579 47 116 49 179 147 188 290 11 168 -48 265 -195 323 -39 15
-72 32 -72 36 0 4 17 13 38 20 124 40 194 162 178 312 -16 153 -123 260 -295
296 -66 14 -759 22 -991 12z m213 -98 l127 -6 0 -252 0 -253 -33 -6 c-49 -9
-272 -6 -346 5 -138 21 -217 100 -228 229 -10 107 42 211 127 255 66 34 134
40 353 28z m742 -14 c55 -19 130 -94 144 -144 14 -50 14 -129 1 -176 -15 -52
-72 -113 -132 -140 -48 -21 -70 -24 -231 -27 -98 -2 -189 -1 -203 2 l-24 6 2
243 3 242 90 6 c131 9 304 3 350 -12z m-12 -594 c109 -28 177 -95 198 -196 32
-146 -53 -292 -192 -329 -21 -6 -125 -9 -236 -8 l-198 3 -3 259 c-2 182 1 263
9 272 17 20 343 20 422 -1z"/>
</g>
</svg>
